<?xml version="1.0" encoding="UTF-8"?>
<svg version="1.1" viewBox="0 0 2048 2048" width="1280" height="1280" xmlns="http://www.w3.org/2000/svg">
<path transform="translate(340,64)" d="m0 0h789l20 2 17 4 19 7 19 10 14 10 14 12 8 8 13 17 9 15 4 8v2l120 1 17 3 16 7 13 8 10 9 8 8 10 15 7 13 110 1 14 2 12 4 14 7 11 8 10 9 9 11 8 14 6 16 3 17v8h165l10 3 30 14 31 14 16 8 26 12 25 12 9 7 6 9 2 7v11l-3 9-4 6-8 7-24 13-28 15-66 35-16 8-4 1-166 1-3 21-5 15-7 14-9 12-6 7-14 11-15 8-15 5-9 2-16 1-11-2-10-6-6-9-3-8v-7h-64l-1 15-5 19-8 16-9 12-7 8-16 12-14 7-17 5-21 2h-108l-2 7-10 17-9 12-9 10-13 13-15 11-18 10-20 8-15 4-19 3-17 1-166 1-58 232-5 10-4 5-8 5-6 2-12 1h-100l-1 8-13 48-17 64-48 180-21 78-11 42-6 22 1 9 8 21 1 4v10l-4 10-7 8-8 5 1 5 21 53 3 9h151l23 2 25 5 27 9 23 11 16 10 11 8 16 13 17 17 11 14 10 14 9 16 10 21 9 27 5 25 2 27v136l-2 9-6 9-8 7-9 3-15 1h-691l-19-1-14-3-13-5-11-6-10-8-8-7-11-14-9-17-4-13-2-12v-214l4-18 9-19 9-12 9-10 12-9 11-6 9-4h2l6-82 26-364 17-237 5-65 4-11 9-10 7-4 12-2 2-15 2-21 2-27-23-1-28-4-22-5-30-10-20-9-21-11-21-14-14-11-14-12-17-17-7-8-12-15-12-18-10-17-12-25-10-28-6-24-4-24-2-30v-142l2-27 4-24 7-26 8-23 9-20 11-20 10-15 9-12 8-10 9-10 11-12 8-7 10-9 19-14 19-12 27-14 23-9 24-7 25-5 15-2z" fill="#010101"/>
<path transform="translate(336,128)" d="m0 0h796l16 3 17 7 14 9 10 9 9 10 8 13 5 12 4 14 1 6 1 17v382l-2 17-5 16-8 16-8 11-9 10-14 10-14 7-16 5-15 2-459 1-10 3-9 7-4 6-3 10v9l7 30 18 71 36 144 1 9-27 101-17 64-13 48-11 42-13 49-15 56-26 97-4 17v8l5 16 11 26 5 8 6 5 6 3 5 1h8l10-2 23 58 3 9h-336l-1-1 2-29 6-88 3-41 5-69 2-23 1-5 108-1 10-2 9-5 6-7 5-13 22-111 22-109 20-101v-7l-18-73-16-64-18-73-12-47-4-11-6-8-12-6-5-1-108-1-25-2-24-5-16-5-16-6-21-10-19-12-13-10-10-9-8-7-11-12-13-17-11-18-8-15-9-23-6-21-4-21-2-22v-151l2-19 4-20 6-21 8-20 8-16 11-18 10-13 12-14 11-11 11-9 13-10 18-11 22-11 22-8 25-6z" fill="#FDBA47"/>
<path transform="translate(280,1664)" d="m0 0h524l25 2 17 4 19 7 21 11 16 12 10 9 10 10 10 13 11 19 8 19 5 17 3 16 1 13v103l-19 1h-108l-1-1-1-71-3-18-6-15-9-15-12-14-13-10-17-9-13-4-14-2h-401l-10 4-8 8-5 10-1 10 2 11 5 9 7 6 7 3 6 1 397 1 10 4 9 8 5 10 1 5v67l-7 2h-478l-8-3-9-6-6-7-3-7-1-5v-202l4-11 7-8 10-6z" fill="#316589"/>
<path transform="translate(344,256)" d="m0 0h272l17 3 12 4 15 8 13 10 7 7 10 14 8 16 4 14 2 14v138l-3 19-5 15-8 15-9 11-9 9-13 9-16 8-15 4-6 1h-19l-12-5-7-7-4-8-2-10 1-9 4-10 7-8 10-5 19-3 12-6 5-6 4-8 1-4v-140l-4-11-7-8-9-5-4-1h-271l-12 6-7 8-3 6-1 5v138l4 12 3 4v2l4 2 5 4 8 3 141 1 12 5 8 8 4 8 2 11-2 11-6 10-7 6-9 4-92 1-55-1-18-4-15-6-14-9-12-11-9-11-9-16-5-15-2-13v-147l2-14 5-15 9-17 13-15 11-9 14-8 12-5z" fill="#010101"/>
<path transform="translate(344,320)" d="m0 0h271l10 4 9 8 5 10 1 4v140l-4 10-4 6-6 5-9 4-19 3-10 5-6 7-4 10-2 8h-64l-4-13-5-8-7-6-10-4-141-1-9-4-8-6-5-9-3-9v-138l3-9 7-9 9-6z" fill="#FE6C69"/>
<path transform="translate(256,1791)" d="m0 0 62 1 1 1 2 11 5 9 7 6 7 3 6 1 397 1 10 4 9 8 5 10 1 5v67l-7 2h-478l-8-3-9-6-6-7-3-7-1-5z" fill="#FDB947"/>
<path transform="translate(1281,224)" d="m0 0h99l9 2 9 6 7 10 2 5 1 9v323l-2 9-7 11-9 6-5 2-9 1h-95l-1-1v-382z" fill="#316589"/>
<path transform="translate(349,768)" d="m0 0h73l3 6 9 37 39 156 6 22v8l-21 106-22 109-12 60-2 7-2 1h-74l-1-1 1-19 9-120 6-86 9-125 4-55v-16l-4-10-6-8-8-5-12-4 2-26z" fill="#316589"/>
<path transform="translate(1473,288)" d="m0 0h98l10 2 10 7 6 9 2 6v208l-6 12-8 7-6 3-20 3-9 4-8 7-5 11-1 7-1 1-62 1-1-1v-286z" fill="#D9E5EC"/>
<path transform="translate(713,768)" d="m0 0h173l1 3-4 14-18 73-16 64-9 35-2 3h-76l-4-9-45-180z" fill="#316589"/>
<path transform="translate(816,255)" d="m0 0 246 1 10 3 6 4 6 7 5 13v9l-4 12-7 9-9 5-8 2h-265l-9-2-8-4-7-8-4-9-1-5 1-13 6-12 8-7 11-4z" fill="#010101"/>
<path transform="translate(794,384)" d="m0 0h267l11 3 8 6 6 9 3 9v9l-4 12-6 8-7 5-5 2-6 1h-264l-10-2-9-5-6-7-4-9-1-5 1-13 6-12 7-6 9-4z" fill="#010101"/>
<path transform="translate(810,511)" d="m0 0h43l209 1 11 4 8 7 5 10 1 4v14l-4 10-8 9-10 5-9 1h-232l-31-1-10-4-8-7-5-10-1-3v-15l4-11 7-7 10-5 3-1z" fill="#010101"/>
<path transform="translate(1665,384)" d="m0 0h150l11 4 53 25-3 3-27 14-22 12-11 5h-151l-1-3v-59z" fill="#D9E5EC"/>
</svg>
