<?xml version="1.0" encoding="UTF-8"?>
<svg version="1.1" viewBox="0 0 2000 2000" width="130" height="130" xmlns="http://www.w3.org/2000/svg">
<path transform="translate(400,473)" d="m0 0h403l24 1 16 4 16 7 12 9 12 12 10 15 2 4 64 1 14 3 8 4 10 8 7 8 6 11 2 1h54l15 2 14 7 10 9 6 8 5 10 4 16 90 1 10 4 37 17 29 14 5 4 4 7v7l-4 7-5 5-14 8-29 15-22 12-10 4-21 1-70 1-3 14-7 14-9 10-11 8-10 4-5 1h-14l-7-4-5-8v-10l6-9 4-2 14-3 8-7 2-8v-110l-4-9-4-3-5-1-56-1v151l-1 16-4 12-4 8-8 10-10 7-13 5-13 2-60 1-10 16-9 10-10 9-16 9-15 5-6 1-17 1-88 1-5 15-17 69-10 40-5 10-5 5-5 1-60 1-9 35-12 44-6 23-18 67-11 42-7 26-1 7 5 17v6l-6 9-4 5 10 26 2 7 3 1 89 1 15 2 16 5 16 8 10 6 10 8 8 7 9 11 7 10 10 19 6 20 3 18v81l-3 7-8 7-4 1h-380l-18-1-13-4-10-6-10-10-8-14-2-8-1-34v-40l1-52 4-11 7-11 8-8 13-8h2l5-54 12-170 6-80 5-77 2-25 2-9 6-7 11-4 1-3 2-31-28-3-20-5-23-10-14-8-12-9-12-11-9-9-10-13-10-16-7-15-6-17-3-12-2-16v-96l3-22 5-18 9-21 8-14 10-14 15-16 11-9 13-9 18-10 19-7 22-5 8-1zm713 176v31l1 4h82l9-4 21-11 5-2-2-4-31-14z" fill="#010102"/>
<path transform="translate(399,508)" d="m0 0h391l35 1 12 4 10 6 9 9 8 14 3 9 1 11v209l-2 15-8 16-9 10-9 6-12 5-12 2-253 1-7 4-4 8v8l8 34 6 22 8 33 10 40 1 10-7 28-8 28-7 28-8 29-8 31-7 25-7 27-8 30-9 33 1 7 8 20 4 6 7 3 10 1 3 3 10 27 1 5-168 1-15-1 1-19 3-45 5-64 1-11 1-1 59-1 8-2 5-5 4-13 8-40 7-34 10-50 7-36 2-10-1-9-7-29-9-35-7-29-7-27-5-19-3-6-5-4-2-1-64-1-17-2-21-6-16-7-15-10-11-9-7-7-9-12-10-17-5-13-5-21-1-7-1-50v-35l2-18 6-23 6-14 10-16 12-14 9-8 14-10 15-8 17-6 17-3z" fill="#FDBA46"/>
<path transform="translate(1214,1021)" d="m0 0h68l4 1v104l-3 1-20 1 2 5 8 11 22 33 1 3 7-1 9-12 22-33 3-7h-22l-1-1v-104l16-1h208l1 5v29l-1 72-33 1-8 8-7 8-10 11-9 11-5 6h-2l-2 4-8 8-7 8-12 14-14 15-11 12-9 11-12 13-5 8 8 10 24 28 13 15 11 13 9 10 9 11 13 15 24 28 11 13 7 8 28 2v105l-9 1h-235l-1-2v-103l1-2 24 1-5-10-16-23-14-19-4-2-6 5-12 17-20 30-1 2 23-1 2 1v105l-221 1-5-1-1-3v-87l1-15 29-1 7-2 9-10 7-8 11-12 7-8 10-11 7-8 14-15 9-11 13-14 7-8 9-10 9-11 8-9-1-5-12-14-9-11-9-10-9-11-10-11-9-11-13-15-11-13-12-14-13-15-12-14-7-8-8-1h-19l-1-6v-98l1-1z" fill="#F9904C"/>
<path transform="translate(776,1022)" d="m0 0h244v104l-4 1h-28v291h31l1 1v104l-160 1h-77l-8-1v-104l1-1h31v-290l-28-1-4-2v-102z" fill="#F9904C"/>
<path transform="translate(354,1351)" d="m0 0h290l14 2 13 4 16 8 11 8 9 9 10 15 7 17 3 16v61l-1 1-10 1-59-1-1-1-1-37-2-13-4-9-7-11-8-7-12-6-9-2h-229l-6 6-3 11 3 9 5 5 3 1 98 1h122l7 3 7 8 1 2 1 29-1 10-2 1h-263l-7-2-7-8-1-2-1-9v-106l4-7 8-6z" fill="#2F6386"/>
<path transform="translate(405,578)" d="m0 0h75l61 1 17 5 10 7 8 8 6 10 4 13v89l-4 13-6 10-9 9-13 8-9 3-12 1-9-3-6-7-3-9 3-7 5-6 7-4 9-2 8-6 3-5v-79l-3-6-6-5-4-1h-148l-6 3-4 5-1 2v83l4 6 8 4h59l19 1 8 6 4 5 1 2v8l-5 10-7 4-4 1h-73l-13-2-10-4-10-7-5-4-9-14-4-12-1-6v-81l3-12 7-13 8-9 11-7 11-4 5-1z" fill="#010101"/>
<path transform="translate(389,614)" d="m0 0h148l7 3 6 7 1 3v79l-4 6-8 6-11 3-7 5-4 6-1 3-2 1h-32l-5-9-7-6-2-1-19-1h-59l-8-4-4-5-1-2v-83l4-6 5-4z" fill="#FB6A67"/>
<path transform="translate(342,1421)" d="m0 0 32 1 4 10 5 5 3 1 98 1h122l7 3 7 8 1 2 1 29-1 10-2 1h-263l-7-2-7-8-1-2-1-9v-47z" fill="#FDB946"/>
<path transform="translate(902,561)" d="m0 0h57l6 3 5 4 2 3 1 21v161l-2 10-6 7-4 2h-59z" fill="#2F6386"/>
<path transform="translate(396,859)" d="m0 0h35l3 5 11 46 16 63 2 7v8l-7 33-7 36-8 39-7 36-3 9h-41l-1-4 5-68 4-57 7-90v-14l-5-8-8-5-2-1 2-29 2-4z" fill="#2F6386"/>
<path transform="translate(1621,1417)" d="m0 0 56 1 1 1v104l-6 1h-89l-6-1-1-70v-33l1-2z" fill="#F9904C"/>
<path transform="translate(592,859)" d="m0 0h94l-1 9-7 30-10 40-6 23-2 4h-42l-3-7-21-84-2-10z" fill="#2F6386"/>
<path transform="translate(633,719)" d="m0 0h152l8 6 4 7v8l-5 10-7 4-4 1h-143l-8-2-7-8-2-6 1-8 3-5z" fill="#010102"/>
<path transform="translate(650,578)" d="m0 0h56l80 1 6 4 4 5 2 4v8l-4 8-5 4-5 2h-150l-8-4-4-6-1-3v-10l4-6 8-6z" fill="#010101"/>
<path transform="translate(639,648)" d="m0 0h42l104 1 9 6 4 7v9l-4 7-6 5-2 1h-154l-5-3-4-5-2-4v-11l4-6 8-6z" fill="#010101"/>
<path transform="translate(776,1418)" d="m0 0h2v14l-1 22-2-1v-34z" fill="#020304"/>
<path transform="translate(481,735)" d="m0 0h34l1 4-35-1z" fill="#F9904C"/>
<path transform="translate(538,1281)" d="m0 0h8l3 3 2 6-1 4-4-8-1-3-7-1z" fill="#F9904C"/>
</svg>
